<mxfile host="app.diagrams.net" modified="2024-03-05T06:53:01.766Z" agent="Mozilla/5.0 (Windows NT 10.0; Win64; x64) AppleWebKit/537.36 (KHTML, like Gecko) Chrome/122.0.0.0 Safari/537.36" etag="4uvVxMaEreQi7f_AHBO7" version="24.0.1" type="google">
  <diagram id="C5RBs43oDa-KdzZeNtuy" name="Page-1">
    <mxGraphModel grid="1" page="1" gridSize="10" guides="1" tooltips="1" connect="1" arrows="1" fold="1" pageScale="1" pageWidth="827" pageHeight="1169" math="0" shadow="0">
      <root>
        <mxCell id="WIyWlLk6GJQsqaUBKTNV-0" />
        <mxCell id="WIyWlLk6GJQsqaUBKTNV-1" parent="WIyWlLk6GJQsqaUBKTNV-0" />
        <mxCell id="SI7UW8Pgef0wgsVxKk_l-2" style="edgeStyle=none;curved=1;rounded=0;orthogonalLoop=1;jettySize=auto;html=1;exitX=0.5;exitY=1;exitDx=0;exitDy=0;fontSize=12;startSize=8;endSize=8;" edge="1" parent="WIyWlLk6GJQsqaUBKTNV-1" source="SI7UW8Pgef0wgsVxKk_l-0" target="SI7UW8Pgef0wgsVxKk_l-1">
          <mxGeometry relative="1" as="geometry" />
        </mxCell>
        <mxCell id="SI7UW8Pgef0wgsVxKk_l-0" value="start" style="ellipse;whiteSpace=wrap;html=1;" vertex="1" parent="WIyWlLk6GJQsqaUBKTNV-1">
          <mxGeometry x="220" y="40" width="120" height="40" as="geometry" />
        </mxCell>
        <mxCell id="SI7UW8Pgef0wgsVxKk_l-5" style="edgeStyle=none;curved=1;rounded=0;orthogonalLoop=1;jettySize=auto;html=1;fontSize=12;startSize=8;endSize=8;" edge="1" parent="WIyWlLk6GJQsqaUBKTNV-1" source="SI7UW8Pgef0wgsVxKk_l-1" target="SI7UW8Pgef0wgsVxKk_l-4">
          <mxGeometry relative="1" as="geometry" />
        </mxCell>
        <mxCell id="SI7UW8Pgef0wgsVxKk_l-1" value="hit post endpoint" style="rounded=0;whiteSpace=wrap;html=1;" vertex="1" parent="WIyWlLk6GJQsqaUBKTNV-1">
          <mxGeometry x="220" y="120" width="120" height="50" as="geometry" />
        </mxCell>
        <mxCell id="SI7UW8Pgef0wgsVxKk_l-7" style="edgeStyle=none;curved=1;rounded=0;orthogonalLoop=1;jettySize=auto;html=1;fontSize=12;startSize=8;endSize=8;" edge="1" parent="WIyWlLk6GJQsqaUBKTNV-1" source="SI7UW8Pgef0wgsVxKk_l-4" target="SI7UW8Pgef0wgsVxKk_l-6">
          <mxGeometry relative="1" as="geometry" />
        </mxCell>
        <mxCell id="SI7UW8Pgef0wgsVxKk_l-8" value="no" style="edgeLabel;html=1;align=center;verticalAlign=middle;resizable=0;points=[];fontSize=12;" connectable="0" vertex="1" parent="SI7UW8Pgef0wgsVxKk_l-7">
          <mxGeometry x="0.15" y="3" relative="1" as="geometry">
            <mxPoint x="-6" y="3" as="offset" />
          </mxGeometry>
        </mxCell>
        <mxCell id="SI7UW8Pgef0wgsVxKk_l-14" style="edgeStyle=none;curved=1;rounded=0;orthogonalLoop=1;jettySize=auto;html=1;fontSize=12;startSize=8;endSize=8;" edge="1" parent="WIyWlLk6GJQsqaUBKTNV-1" source="SI7UW8Pgef0wgsVxKk_l-4" target="SI7UW8Pgef0wgsVxKk_l-13">
          <mxGeometry relative="1" as="geometry" />
        </mxCell>
        <mxCell id="SI7UW8Pgef0wgsVxKk_l-31" value="yes" style="edgeLabel;html=1;align=center;verticalAlign=middle;resizable=0;points=[];fontSize=12;" connectable="0" vertex="1" parent="SI7UW8Pgef0wgsVxKk_l-14">
          <mxGeometry x="-0.1333" relative="1" as="geometry">
            <mxPoint as="offset" />
          </mxGeometry>
        </mxCell>
        <mxCell id="SI7UW8Pgef0wgsVxKk_l-4" value="is header Authorize avail &amp;amp;&amp;amp; bearer?" style="rhombus;whiteSpace=wrap;html=1;" vertex="1" parent="WIyWlLk6GJQsqaUBKTNV-1">
          <mxGeometry x="230" y="210" width="100" height="120" as="geometry" />
        </mxCell>
        <mxCell id="SI7UW8Pgef0wgsVxKk_l-6" value="return code 401&lt;br&gt;Unauthorized" style="rounded=0;whiteSpace=wrap;html=1;" vertex="1" parent="WIyWlLk6GJQsqaUBKTNV-1">
          <mxGeometry x="410" y="245" width="120" height="50" as="geometry" />
        </mxCell>
        <mxCell id="SI7UW8Pgef0wgsVxKk_l-12" style="edgeStyle=none;curved=1;rounded=0;orthogonalLoop=1;jettySize=auto;html=1;exitX=1;exitY=0.5;exitDx=0;exitDy=0;exitPerimeter=0;fontSize=12;startSize=8;endSize=8;dashed=1;" edge="1" parent="WIyWlLk6GJQsqaUBKTNV-1" source="SI7UW8Pgef0wgsVxKk_l-10" target="SI7UW8Pgef0wgsVxKk_l-13">
          <mxGeometry relative="1" as="geometry" />
        </mxCell>
        <mxCell id="SI7UW8Pgef0wgsVxKk_l-10" value="token" style="shape=cylinder3;whiteSpace=wrap;html=1;boundedLbl=1;backgroundOutline=1;size=15;" vertex="1" parent="WIyWlLk6GJQsqaUBKTNV-1">
          <mxGeometry x="90" y="370" width="60" height="80" as="geometry" />
        </mxCell>
        <mxCell id="SI7UW8Pgef0wgsVxKk_l-16" style="edgeStyle=none;curved=1;rounded=0;orthogonalLoop=1;jettySize=auto;html=1;fontSize=12;startSize=8;endSize=8;" edge="1" parent="WIyWlLk6GJQsqaUBKTNV-1" source="SI7UW8Pgef0wgsVxKk_l-13" target="SI7UW8Pgef0wgsVxKk_l-48">
          <mxGeometry relative="1" as="geometry">
            <mxPoint x="280" y="510" as="targetPoint" />
          </mxGeometry>
        </mxCell>
        <mxCell id="SI7UW8Pgef0wgsVxKk_l-13" value="get auth data by token" style="rounded=0;whiteSpace=wrap;html=1;" vertex="1" parent="WIyWlLk6GJQsqaUBKTNV-1">
          <mxGeometry x="220" y="380" width="120" height="60" as="geometry" />
        </mxCell>
        <mxCell id="SI7UW8Pgef0wgsVxKk_l-18" style="edgeStyle=none;curved=1;rounded=0;orthogonalLoop=1;jettySize=auto;html=1;fontSize=12;startSize=8;endSize=8;" edge="1" parent="WIyWlLk6GJQsqaUBKTNV-1" source="SI7UW8Pgef0wgsVxKk_l-145" target="SI7UW8Pgef0wgsVxKk_l-17">
          <mxGeometry relative="1" as="geometry">
            <mxPoint x="278.400163666121" y="729.9998199672668" as="sourcePoint" />
          </mxGeometry>
        </mxCell>
        <mxCell id="SI7UW8Pgef0wgsVxKk_l-51" value="yes" style="edgeLabel;html=1;align=center;verticalAlign=middle;resizable=0;points=[];fontSize=12;" connectable="0" vertex="1" parent="SI7UW8Pgef0wgsVxKk_l-18">
          <mxGeometry x="-0.1815" y="2" relative="1" as="geometry">
            <mxPoint as="offset" />
          </mxGeometry>
        </mxCell>
        <mxCell id="SI7UW8Pgef0wgsVxKk_l-20" style="edgeStyle=none;curved=1;rounded=0;orthogonalLoop=1;jettySize=auto;html=1;exitX=1;exitY=0.5;exitDx=0;exitDy=0;fontSize=12;startSize=8;endSize=8;" edge="1" parent="WIyWlLk6GJQsqaUBKTNV-1" source="SI7UW8Pgef0wgsVxKk_l-17" target="SI7UW8Pgef0wgsVxKk_l-19">
          <mxGeometry relative="1" as="geometry" />
        </mxCell>
        <mxCell id="SI7UW8Pgef0wgsVxKk_l-21" value="no" style="edgeLabel;html=1;align=center;verticalAlign=middle;resizable=0;points=[];fontSize=12;" connectable="0" vertex="1" parent="SI7UW8Pgef0wgsVxKk_l-20">
          <mxGeometry x="-0.0839" y="1" relative="1" as="geometry">
            <mxPoint x="1" as="offset" />
          </mxGeometry>
        </mxCell>
        <mxCell id="SI7UW8Pgef0wgsVxKk_l-42" style="edgeStyle=none;curved=1;rounded=0;orthogonalLoop=1;jettySize=auto;html=1;entryX=0.5;entryY=0;entryDx=0;entryDy=0;fontSize=12;startSize=8;endSize=8;" edge="1" parent="WIyWlLk6GJQsqaUBKTNV-1" source="SI7UW8Pgef0wgsVxKk_l-17" target="SI7UW8Pgef0wgsVxKk_l-41">
          <mxGeometry relative="1" as="geometry" />
        </mxCell>
        <mxCell id="SI7UW8Pgef0wgsVxKk_l-43" value="yes" style="edgeLabel;html=1;align=center;verticalAlign=middle;resizable=0;points=[];fontSize=12;" connectable="0" vertex="1" parent="SI7UW8Pgef0wgsVxKk_l-42">
          <mxGeometry x="-0.08" relative="1" as="geometry">
            <mxPoint as="offset" />
          </mxGeometry>
        </mxCell>
        <mxCell id="SI7UW8Pgef0wgsVxKk_l-17" value="is format ext file xlxs/csv?" style="rhombus;whiteSpace=wrap;html=1;" vertex="1" parent="WIyWlLk6GJQsqaUBKTNV-1">
          <mxGeometry x="228.25" y="830" width="105" height="100" as="geometry" />
        </mxCell>
        <mxCell id="SI7UW8Pgef0wgsVxKk_l-143" style="edgeStyle=orthogonalEdgeStyle;rounded=0;orthogonalLoop=1;jettySize=auto;html=1;fontSize=12;startSize=8;endSize=8;" edge="1" parent="WIyWlLk6GJQsqaUBKTNV-1" source="SI7UW8Pgef0wgsVxKk_l-19" target="SI7UW8Pgef0wgsVxKk_l-134">
          <mxGeometry relative="1" as="geometry">
            <Array as="points">
              <mxPoint x="560" y="890" />
              <mxPoint x="560" y="2615" />
            </Array>
          </mxGeometry>
        </mxCell>
        <mxCell id="SI7UW8Pgef0wgsVxKk_l-19" value="return code 101&lt;br&gt;Invalid request" style="rounded=0;whiteSpace=wrap;html=1;" vertex="1" parent="WIyWlLk6GJQsqaUBKTNV-1">
          <mxGeometry x="410" y="855" width="120" height="50" as="geometry" />
        </mxCell>
        <mxCell id="SI7UW8Pgef0wgsVxKk_l-26" style="edgeStyle=none;curved=1;rounded=0;orthogonalLoop=1;jettySize=auto;html=1;fontSize=12;startSize=8;endSize=8;" edge="1" parent="WIyWlLk6GJQsqaUBKTNV-1" source="SI7UW8Pgef0wgsVxKk_l-22" target="SI7UW8Pgef0wgsVxKk_l-25">
          <mxGeometry relative="1" as="geometry" />
        </mxCell>
        <mxCell id="SI7UW8Pgef0wgsVxKk_l-27" value="no" style="edgeLabel;html=1;align=center;verticalAlign=middle;resizable=0;points=[];fontSize=12;" connectable="0" vertex="1" parent="SI7UW8Pgef0wgsVxKk_l-26">
          <mxGeometry x="-0.0065" relative="1" as="geometry">
            <mxPoint x="1" as="offset" />
          </mxGeometry>
        </mxCell>
        <mxCell id="SI7UW8Pgef0wgsVxKk_l-29" style="edgeStyle=none;curved=1;rounded=0;orthogonalLoop=1;jettySize=auto;html=1;fontSize=12;startSize=8;endSize=8;" edge="1" parent="WIyWlLk6GJQsqaUBKTNV-1" source="SI7UW8Pgef0wgsVxKk_l-22" target="SI7UW8Pgef0wgsVxKk_l-45">
          <mxGeometry relative="1" as="geometry">
            <mxPoint x="170" y="1220" as="targetPoint" />
          </mxGeometry>
        </mxCell>
        <mxCell id="SI7UW8Pgef0wgsVxKk_l-30" value="yes" style="edgeLabel;html=1;align=center;verticalAlign=middle;resizable=0;points=[];fontSize=12;" connectable="0" vertex="1" parent="SI7UW8Pgef0wgsVxKk_l-29">
          <mxGeometry x="-0.3333" y="1" relative="1" as="geometry">
            <mxPoint as="offset" />
          </mxGeometry>
        </mxCell>
        <mxCell id="SI7UW8Pgef0wgsVxKk_l-22" value="is file size &amp;lt;= 128kb?" style="rhombus;whiteSpace=wrap;html=1;" vertex="1" parent="WIyWlLk6GJQsqaUBKTNV-1">
          <mxGeometry x="227.5" y="1080" width="105" height="100" as="geometry" />
        </mxCell>
        <mxCell id="SI7UW8Pgef0wgsVxKk_l-142" style="edgeStyle=orthogonalEdgeStyle;rounded=0;orthogonalLoop=1;jettySize=auto;html=1;fontSize=12;startSize=8;endSize=8;" edge="1" parent="WIyWlLk6GJQsqaUBKTNV-1" source="SI7UW8Pgef0wgsVxKk_l-25" target="SI7UW8Pgef0wgsVxKk_l-134">
          <mxGeometry relative="1" as="geometry">
            <Array as="points">
              <mxPoint x="560" y="1130" />
              <mxPoint x="560" y="2615" />
            </Array>
          </mxGeometry>
        </mxCell>
        <mxCell id="SI7UW8Pgef0wgsVxKk_l-25" value="return code 104&lt;br&gt;file size more than 128kb" style="rounded=0;whiteSpace=wrap;html=1;" vertex="1" parent="WIyWlLk6GJQsqaUBKTNV-1">
          <mxGeometry x="410" y="1105" width="120" height="50" as="geometry" />
        </mxCell>
        <mxCell id="SI7UW8Pgef0wgsVxKk_l-28" value="save file on local dir name request_id.xlx/xlsx/csv" style="rounded=0;whiteSpace=wrap;html=1;" vertex="1" parent="WIyWlLk6GJQsqaUBKTNV-1">
          <mxGeometry x="212" y="1640" width="130" height="60" as="geometry" />
        </mxCell>
        <mxCell id="SI7UW8Pgef0wgsVxKk_l-36" style="edgeStyle=none;curved=1;rounded=0;orthogonalLoop=1;jettySize=auto;html=1;fontSize=12;startSize=8;endSize=8;" edge="1" parent="WIyWlLk6GJQsqaUBKTNV-1" source="SI7UW8Pgef0wgsVxKk_l-34" target="SI7UW8Pgef0wgsVxKk_l-39">
          <mxGeometry relative="1" as="geometry">
            <mxPoint x="407.5" y="1390" as="targetPoint" />
          </mxGeometry>
        </mxCell>
        <mxCell id="SI7UW8Pgef0wgsVxKk_l-37" value="no" style="edgeLabel;html=1;align=center;verticalAlign=middle;resizable=0;points=[];fontSize=12;" connectable="0" vertex="1" parent="SI7UW8Pgef0wgsVxKk_l-36">
          <mxGeometry x="-0.0207" relative="1" as="geometry">
            <mxPoint x="1" as="offset" />
          </mxGeometry>
        </mxCell>
        <mxCell id="SI7UW8Pgef0wgsVxKk_l-117" style="edgeStyle=none;curved=1;rounded=0;orthogonalLoop=1;jettySize=auto;html=1;fontSize=12;startSize=8;endSize=8;" edge="1" parent="WIyWlLk6GJQsqaUBKTNV-1" source="SI7UW8Pgef0wgsVxKk_l-34" target="SI7UW8Pgef0wgsVxKk_l-59">
          <mxGeometry relative="1" as="geometry" />
        </mxCell>
        <mxCell id="SI7UW8Pgef0wgsVxKk_l-118" value="yes" style="edgeLabel;html=1;align=center;verticalAlign=middle;resizable=0;points=[];fontSize=12;" connectable="0" vertex="1" parent="SI7UW8Pgef0wgsVxKk_l-117">
          <mxGeometry x="-0.4284" y="-2" relative="1" as="geometry">
            <mxPoint as="offset" />
          </mxGeometry>
        </mxCell>
        <mxCell id="SI7UW8Pgef0wgsVxKk_l-34" value="is row data &amp;gt; 1 &lt;br&gt;&amp;amp;&amp;amp; &lt;br&gt;row data &amp;lt;=10?" style="rhombus;whiteSpace=wrap;html=1;" vertex="1" parent="WIyWlLk6GJQsqaUBKTNV-1">
          <mxGeometry x="225" y="1310" width="110" height="120" as="geometry" />
        </mxCell>
        <mxCell id="SI7UW8Pgef0wgsVxKk_l-141" style="edgeStyle=orthogonalEdgeStyle;rounded=0;orthogonalLoop=1;jettySize=auto;html=1;fontSize=12;startSize=8;endSize=8;" edge="1" parent="WIyWlLk6GJQsqaUBKTNV-1" source="SI7UW8Pgef0wgsVxKk_l-39" target="SI7UW8Pgef0wgsVxKk_l-134">
          <mxGeometry relative="1" as="geometry">
            <mxPoint x="560" y="1415" as="sourcePoint" />
            <mxPoint x="-168" y="2615" as="targetPoint" />
            <Array as="points">
              <mxPoint x="560" y="1370" />
              <mxPoint x="560" y="2570" />
            </Array>
          </mxGeometry>
        </mxCell>
        <mxCell id="SI7UW8Pgef0wgsVxKk_l-39" value="return code 102&lt;br&gt;invalid row data" style="rounded=0;whiteSpace=wrap;html=1;" vertex="1" parent="WIyWlLk6GJQsqaUBKTNV-1">
          <mxGeometry x="410" y="1345" width="120" height="50" as="geometry" />
        </mxCell>
        <mxCell id="SI7UW8Pgef0wgsVxKk_l-44" style="edgeStyle=none;curved=1;rounded=0;orthogonalLoop=1;jettySize=auto;html=1;fontSize=12;startSize=8;endSize=8;" edge="1" parent="WIyWlLk6GJQsqaUBKTNV-1" source="SI7UW8Pgef0wgsVxKk_l-41" target="SI7UW8Pgef0wgsVxKk_l-22">
          <mxGeometry relative="1" as="geometry" />
        </mxCell>
        <mxCell id="SI7UW8Pgef0wgsVxKk_l-41" value="validate file size" style="rounded=0;whiteSpace=wrap;html=1;" vertex="1" parent="WIyWlLk6GJQsqaUBKTNV-1">
          <mxGeometry x="215" y="990" width="130" height="60" as="geometry" />
        </mxCell>
        <mxCell id="SI7UW8Pgef0wgsVxKk_l-47" style="edgeStyle=none;curved=1;rounded=0;orthogonalLoop=1;jettySize=auto;html=1;fontSize=12;startSize=8;endSize=8;" edge="1" parent="WIyWlLk6GJQsqaUBKTNV-1" source="SI7UW8Pgef0wgsVxKk_l-45" target="SI7UW8Pgef0wgsVxKk_l-34">
          <mxGeometry relative="1" as="geometry" />
        </mxCell>
        <mxCell id="SI7UW8Pgef0wgsVxKk_l-45" value="validate row data" style="rounded=0;whiteSpace=wrap;html=1;" vertex="1" parent="WIyWlLk6GJQsqaUBKTNV-1">
          <mxGeometry x="215" y="1220" width="130" height="60" as="geometry" />
        </mxCell>
        <mxCell id="SI7UW8Pgef0wgsVxKk_l-49" style="edgeStyle=orthogonalEdgeStyle;rounded=0;orthogonalLoop=1;jettySize=auto;html=1;fontSize=12;startSize=8;endSize=8;" edge="1" parent="WIyWlLk6GJQsqaUBKTNV-1" source="SI7UW8Pgef0wgsVxKk_l-48" target="SI7UW8Pgef0wgsVxKk_l-6">
          <mxGeometry relative="1" as="geometry" />
        </mxCell>
        <mxCell id="SI7UW8Pgef0wgsVxKk_l-50" value="no" style="edgeLabel;html=1;align=center;verticalAlign=middle;resizable=0;points=[];fontSize=12;" connectable="0" vertex="1" parent="SI7UW8Pgef0wgsVxKk_l-49">
          <mxGeometry x="-0.5529" y="2" relative="1" as="geometry">
            <mxPoint as="offset" />
          </mxGeometry>
        </mxCell>
        <mxCell id="SI7UW8Pgef0wgsVxKk_l-146" style="edgeStyle=none;curved=1;rounded=0;orthogonalLoop=1;jettySize=auto;html=1;fontSize=12;startSize=8;endSize=8;" edge="1" parent="WIyWlLk6GJQsqaUBKTNV-1" source="SI7UW8Pgef0wgsVxKk_l-48" target="SI7UW8Pgef0wgsVxKk_l-145">
          <mxGeometry relative="1" as="geometry" />
        </mxCell>
        <mxCell id="SI7UW8Pgef0wgsVxKk_l-147" value="yes" style="edgeLabel;html=1;align=center;verticalAlign=middle;resizable=0;points=[];fontSize=12;" connectable="0" vertex="1" parent="SI7UW8Pgef0wgsVxKk_l-146">
          <mxGeometry x="-0.2878" y="-4" relative="1" as="geometry">
            <mxPoint y="-1" as="offset" />
          </mxGeometry>
        </mxCell>
        <mxCell id="SI7UW8Pgef0wgsVxKk_l-48" value="token available &amp;amp;&amp;amp; not expired" style="rhombus;whiteSpace=wrap;html=1;" vertex="1" parent="WIyWlLk6GJQsqaUBKTNV-1">
          <mxGeometry x="230" y="470" width="100" height="110" as="geometry" />
        </mxCell>
        <mxCell id="SI7UW8Pgef0wgsVxKk_l-122" style="edgeStyle=none;curved=1;rounded=0;orthogonalLoop=1;jettySize=auto;html=1;fontSize=12;startSize=8;endSize=8;" edge="1" parent="WIyWlLk6GJQsqaUBKTNV-1" source="SI7UW8Pgef0wgsVxKk_l-54" target="xeLrAt8RtwnH5iaN9nZF-1">
          <mxGeometry relative="1" as="geometry">
            <mxPoint x="277.2056451612905" y="1971" as="targetPoint" />
          </mxGeometry>
        </mxCell>
        <mxCell id="SI7UW8Pgef0wgsVxKk_l-127" value="next row data" style="edgeLabel;html=1;align=center;verticalAlign=middle;resizable=0;points=[];fontSize=12;" connectable="0" vertex="1" parent="SI7UW8Pgef0wgsVxKk_l-122">
          <mxGeometry x="-0.3824" y="-1" relative="1" as="geometry">
            <mxPoint as="offset" />
          </mxGeometry>
        </mxCell>
        <mxCell id="SI7UW8Pgef0wgsVxKk_l-130" style="edgeStyle=orthogonalEdgeStyle;rounded=0;orthogonalLoop=1;jettySize=auto;html=1;fontSize=12;startSize=8;endSize=8;" edge="1" parent="WIyWlLk6GJQsqaUBKTNV-1" source="SI7UW8Pgef0wgsVxKk_l-54" target="SI7UW8Pgef0wgsVxKk_l-129">
          <mxGeometry relative="1" as="geometry">
            <Array as="points">
              <mxPoint x="200" y="1825" />
              <mxPoint x="200" y="1768" />
            </Array>
          </mxGeometry>
        </mxCell>
        <mxCell id="SI7UW8Pgef0wgsVxKk_l-131" value="no row data left" style="edgeLabel;html=1;align=center;verticalAlign=middle;resizable=0;points=[];fontSize=12;" connectable="0" vertex="1" parent="SI7UW8Pgef0wgsVxKk_l-130">
          <mxGeometry x="-0.0909" y="3" relative="1" as="geometry">
            <mxPoint x="1" y="-3" as="offset" />
          </mxGeometry>
        </mxCell>
        <mxCell id="SI7UW8Pgef0wgsVxKk_l-54" value="foreach row data" style="rhombus;whiteSpace=wrap;html=1;" vertex="1" parent="WIyWlLk6GJQsqaUBKTNV-1">
          <mxGeometry x="227.5" y="1770" width="100" height="110" as="geometry" />
        </mxCell>
        <mxCell id="SI7UW8Pgef0wgsVxKk_l-136" style="edgeStyle=none;curved=1;rounded=0;orthogonalLoop=1;jettySize=auto;html=1;fontSize=12;startSize=8;endSize=8;" edge="1" parent="WIyWlLk6GJQsqaUBKTNV-1" source="SI7UW8Pgef0wgsVxKk_l-57" target="SI7UW8Pgef0wgsVxKk_l-134">
          <mxGeometry relative="1" as="geometry" />
        </mxCell>
        <mxCell id="SI7UW8Pgef0wgsVxKk_l-57" value="return code 100&lt;div&gt;request received&lt;br&gt;&lt;/div&gt;" style="rounded=0;whiteSpace=wrap;html=1;" vertex="1" parent="WIyWlLk6GJQsqaUBKTNV-1">
          <mxGeometry x="-378" y="2127" width="120" height="60" as="geometry" />
        </mxCell>
        <mxCell id="SI7UW8Pgef0wgsVxKk_l-123" style="edgeStyle=none;curved=1;rounded=0;orthogonalLoop=1;jettySize=auto;html=1;fontSize=12;startSize=8;endSize=8;" edge="1" parent="WIyWlLk6GJQsqaUBKTNV-1" source="xeLrAt8RtwnH5iaN9nZF-1" target="SI7UW8Pgef0wgsVxKk_l-74">
          <mxGeometry relative="1" as="geometry">
            <mxPoint x="277.7766497461928" y="2175" as="sourcePoint" />
          </mxGeometry>
        </mxCell>
        <mxCell id="SI7UW8Pgef0wgsVxKk_l-115" style="edgeStyle=none;curved=1;rounded=0;orthogonalLoop=1;jettySize=auto;html=1;fontSize=12;startSize=8;endSize=8;" edge="1" parent="WIyWlLk6GJQsqaUBKTNV-1" source="SI7UW8Pgef0wgsVxKk_l-59" target="SI7UW8Pgef0wgsVxKk_l-63">
          <mxGeometry relative="1" as="geometry" />
        </mxCell>
        <mxCell id="SI7UW8Pgef0wgsVxKk_l-119" value="invalid" style="edgeLabel;html=1;align=center;verticalAlign=middle;resizable=0;points=[];fontSize=12;" connectable="0" vertex="1" parent="SI7UW8Pgef0wgsVxKk_l-115">
          <mxGeometry x="-0.2" y="-4" relative="1" as="geometry">
            <mxPoint as="offset" />
          </mxGeometry>
        </mxCell>
        <mxCell id="SI7UW8Pgef0wgsVxKk_l-120" style="edgeStyle=none;curved=1;rounded=0;orthogonalLoop=1;jettySize=auto;html=1;fontSize=12;startSize=8;endSize=8;" edge="1" parent="WIyWlLk6GJQsqaUBKTNV-1" source="SI7UW8Pgef0wgsVxKk_l-59" target="SI7UW8Pgef0wgsVxKk_l-28">
          <mxGeometry relative="1" as="geometry">
            <mxPoint x="410" y="1690" as="sourcePoint" />
          </mxGeometry>
        </mxCell>
        <mxCell id="SI7UW8Pgef0wgsVxKk_l-133" value="valid" style="edgeLabel;html=1;align=center;verticalAlign=middle;resizable=0;points=[];fontSize=12;" connectable="0" vertex="1" parent="SI7UW8Pgef0wgsVxKk_l-120">
          <mxGeometry x="-0.1982" y="-1" relative="1" as="geometry">
            <mxPoint as="offset" />
          </mxGeometry>
        </mxCell>
        <mxCell id="SI7UW8Pgef0wgsVxKk_l-59" value="validate empty mandatory" style="rhombus;whiteSpace=wrap;html=1;" vertex="1" parent="WIyWlLk6GJQsqaUBKTNV-1">
          <mxGeometry x="225" y="1470" width="103" height="110" as="geometry" />
        </mxCell>
        <mxCell id="SI7UW8Pgef0wgsVxKk_l-139" style="edgeStyle=orthogonalEdgeStyle;rounded=0;orthogonalLoop=1;jettySize=auto;html=1;fontSize=12;startSize=8;endSize=8;" edge="1" parent="WIyWlLk6GJQsqaUBKTNV-1" source="SI7UW8Pgef0wgsVxKk_l-63" target="SI7UW8Pgef0wgsVxKk_l-134">
          <mxGeometry relative="1" as="geometry">
            <Array as="points">
              <mxPoint x="-460" y="1525" />
              <mxPoint x="-460" y="2570" />
            </Array>
          </mxGeometry>
        </mxCell>
        <mxCell id="SI7UW8Pgef0wgsVxKk_l-63" value="return code 103&lt;br&gt;empty row mandatory" style="rounded=0;whiteSpace=wrap;html=1;" vertex="1" parent="WIyWlLk6GJQsqaUBKTNV-1">
          <mxGeometry y="1495" width="120" height="60" as="geometry" />
        </mxCell>
        <mxCell id="SI7UW8Pgef0wgsVxKk_l-121" style="edgeStyle=none;curved=1;rounded=0;orthogonalLoop=1;jettySize=auto;html=1;fontSize=12;startSize=8;endSize=8;" edge="1" parent="WIyWlLk6GJQsqaUBKTNV-1" source="SI7UW8Pgef0wgsVxKk_l-74" target="SI7UW8Pgef0wgsVxKk_l-77">
          <mxGeometry relative="1" as="geometry" />
        </mxCell>
        <mxCell id="SI7UW8Pgef0wgsVxKk_l-74" value="insert queue to artemis" style="rounded=0;whiteSpace=wrap;html=1;" vertex="1" parent="WIyWlLk6GJQsqaUBKTNV-1">
          <mxGeometry x="218.5" y="2240" width="120" height="60" as="geometry" />
        </mxCell>
        <mxCell id="SI7UW8Pgef0wgsVxKk_l-125" style="edgeStyle=orthogonalEdgeStyle;rounded=0;orthogonalLoop=1;jettySize=auto;html=1;fontSize=12;startSize=8;endSize=8;" edge="1" parent="WIyWlLk6GJQsqaUBKTNV-1">
          <mxGeometry relative="1" as="geometry">
            <mxPoint x="327.62" y="1820" as="targetPoint" />
            <Array as="points">
              <mxPoint x="450.12" y="2485" />
              <mxPoint x="450.12" y="1820" />
            </Array>
            <mxPoint x="327.49692307692396" y="2485.076923076923" as="sourcePoint" />
          </mxGeometry>
        </mxCell>
        <mxCell id="SI7UW8Pgef0wgsVxKk_l-128" value="yes" style="edgeLabel;html=1;align=center;verticalAlign=middle;resizable=0;points=[];fontSize=12;" connectable="0" vertex="1" parent="SI7UW8Pgef0wgsVxKk_l-125">
          <mxGeometry x="-0.8962" y="-1" relative="1" as="geometry">
            <mxPoint as="offset" />
          </mxGeometry>
        </mxCell>
        <mxCell id="SI7UW8Pgef0wgsVxKk_l-77" value="success?" style="rhombus;whiteSpace=wrap;html=1;" vertex="1" parent="WIyWlLk6GJQsqaUBKTNV-1">
          <mxGeometry x="221.5" y="2430" width="111" height="110" as="geometry" />
        </mxCell>
        <mxCell id="SI7UW8Pgef0wgsVxKk_l-88" style="edgeStyle=none;curved=1;rounded=0;orthogonalLoop=1;jettySize=auto;html=1;fontSize=12;startSize=8;endSize=8;" edge="1" parent="WIyWlLk6GJQsqaUBKTNV-1" source="SI7UW8Pgef0wgsVxKk_l-77" target="SI7UW8Pgef0wgsVxKk_l-87">
          <mxGeometry relative="1" as="geometry">
            <mxPoint x="-302.5" y="2543" as="sourcePoint" />
          </mxGeometry>
        </mxCell>
        <mxCell id="SI7UW8Pgef0wgsVxKk_l-102" value="no" style="edgeLabel;html=1;align=center;verticalAlign=middle;resizable=0;points=[];fontSize=12;" connectable="0" vertex="1" parent="SI7UW8Pgef0wgsVxKk_l-88">
          <mxGeometry x="-0.36" y="2" relative="1" as="geometry">
            <mxPoint as="offset" />
          </mxGeometry>
        </mxCell>
        <mxCell id="SI7UW8Pgef0wgsVxKk_l-158" style="edgeStyle=orthogonalEdgeStyle;rounded=0;orthogonalLoop=1;jettySize=auto;html=1;fontSize=12;startSize=8;endSize=8;" edge="1" parent="WIyWlLk6GJQsqaUBKTNV-1" source="SI7UW8Pgef0wgsVxKk_l-87" target="SI7UW8Pgef0wgsVxKk_l-134">
          <mxGeometry relative="1" as="geometry" />
        </mxCell>
        <mxCell id="SI7UW8Pgef0wgsVxKk_l-87" value="return code 500&lt;div&gt;internal server error&lt;/div&gt;" style="rounded=0;whiteSpace=wrap;html=1;" vertex="1" parent="WIyWlLk6GJQsqaUBKTNV-1">
          <mxGeometry x="-178" y="2455" width="120" height="60" as="geometry" />
        </mxCell>
        <mxCell id="SI7UW8Pgef0wgsVxKk_l-94" style="edgeStyle=none;curved=1;rounded=0;orthogonalLoop=1;jettySize=auto;html=1;fontSize=12;startSize=8;endSize=8;dashed=1;" edge="1" parent="WIyWlLk6GJQsqaUBKTNV-1" source="SI7UW8Pgef0wgsVxKk_l-89" target="SI7UW8Pgef0wgsVxKk_l-92">
          <mxGeometry relative="1" as="geometry" />
        </mxCell>
        <mxCell id="SI7UW8Pgef0wgsVxKk_l-96" style="edgeStyle=none;curved=1;rounded=0;orthogonalLoop=1;jettySize=auto;html=1;fontSize=12;startSize=8;endSize=8;" edge="1" parent="WIyWlLk6GJQsqaUBKTNV-1" source="SI7UW8Pgef0wgsVxKk_l-89" target="SI7UW8Pgef0wgsVxKk_l-95">
          <mxGeometry relative="1" as="geometry" />
        </mxCell>
        <mxCell id="SI7UW8Pgef0wgsVxKk_l-89" value="insert request data" style="rounded=0;whiteSpace=wrap;html=1;" vertex="1" parent="WIyWlLk6GJQsqaUBKTNV-1">
          <mxGeometry x="-178" y="1971" width="120" height="60" as="geometry" />
        </mxCell>
        <mxCell id="SI7UW8Pgef0wgsVxKk_l-92" value="request" style="shape=cylinder3;whiteSpace=wrap;html=1;boundedLbl=1;backgroundOutline=1;size=15;" vertex="1" parent="WIyWlLk6GJQsqaUBKTNV-1">
          <mxGeometry x="-368" y="1948" width="100" height="106" as="geometry" />
        </mxCell>
        <mxCell id="SI7UW8Pgef0wgsVxKk_l-97" style="rounded=0;orthogonalLoop=1;jettySize=auto;html=1;fontSize=12;startSize=8;endSize=8;" edge="1" parent="WIyWlLk6GJQsqaUBKTNV-1" source="SI7UW8Pgef0wgsVxKk_l-95" target="SI7UW8Pgef0wgsVxKk_l-87">
          <mxGeometry relative="1" as="geometry">
            <mxPoint x="-88" y="2337" as="targetPoint" />
          </mxGeometry>
        </mxCell>
        <mxCell id="SI7UW8Pgef0wgsVxKk_l-98" value="no" style="edgeLabel;html=1;align=center;verticalAlign=middle;resizable=0;points=[];fontSize=12;" connectable="0" vertex="1" parent="SI7UW8Pgef0wgsVxKk_l-97">
          <mxGeometry x="-0.5111" y="-2" relative="1" as="geometry">
            <mxPoint x="2" y="5" as="offset" />
          </mxGeometry>
        </mxCell>
        <mxCell id="SI7UW8Pgef0wgsVxKk_l-99" style="edgeStyle=none;curved=1;rounded=0;orthogonalLoop=1;jettySize=auto;html=1;fontSize=12;startSize=8;endSize=8;" edge="1" parent="WIyWlLk6GJQsqaUBKTNV-1" source="SI7UW8Pgef0wgsVxKk_l-95" target="SI7UW8Pgef0wgsVxKk_l-57">
          <mxGeometry relative="1" as="geometry" />
        </mxCell>
        <mxCell id="SI7UW8Pgef0wgsVxKk_l-100" value="yes" style="edgeLabel;html=1;align=center;verticalAlign=middle;resizable=0;points=[];fontSize=12;" connectable="0" vertex="1" parent="SI7UW8Pgef0wgsVxKk_l-99">
          <mxGeometry x="0.1" y="2" relative="1" as="geometry">
            <mxPoint as="offset" />
          </mxGeometry>
        </mxCell>
        <mxCell id="SI7UW8Pgef0wgsVxKk_l-95" value="success?" style="rhombus;whiteSpace=wrap;html=1;" vertex="1" parent="WIyWlLk6GJQsqaUBKTNV-1">
          <mxGeometry x="-178" y="2097" width="120" height="120" as="geometry" />
        </mxCell>
        <mxCell id="SI7UW8Pgef0wgsVxKk_l-132" style="edgeStyle=orthogonalEdgeStyle;rounded=0;orthogonalLoop=1;jettySize=auto;html=1;fontSize=12;startSize=8;endSize=8;" edge="1" parent="WIyWlLk6GJQsqaUBKTNV-1" source="SI7UW8Pgef0wgsVxKk_l-129" target="SI7UW8Pgef0wgsVxKk_l-89">
          <mxGeometry relative="1" as="geometry" />
        </mxCell>
        <mxCell id="SI7UW8Pgef0wgsVxKk_l-129" value="request_data = {&lt;div&gt;&lt;span style=&quot;white-space: pre;&quot;&gt;&#x9;&lt;/span&gt;&quot;&lt;span style=&quot;background-color: initial;&quot;&gt;id&quot;: 1,&lt;br&gt;&lt;span style=&quot;white-space: pre;&quot;&gt;&#x9;&lt;/span&gt;&quot;request_id&quot;: &quot;123abc&quot;,&lt;/span&gt;&lt;/div&gt;&lt;div&gt;&lt;span style=&quot;background-color: initial;&quot;&gt;&lt;span style=&quot;white-space: pre;&quot;&gt;&#x9;&lt;/span&gt;&quot;status&quot;: &quot;received&quot;,&lt;/span&gt;&lt;/div&gt;&lt;div&gt;&lt;span style=&quot;background-color: initial;&quot;&gt;&lt;span style=&quot;white-space: pre;&quot;&gt;&#x9;&lt;/span&gt;&quot;file_path&quot;: &quot;/&lt;/span&gt;&lt;span style=&quot;text-align: center; background-color: initial;&quot;&gt;123.abc.xlsx&lt;/span&gt;&lt;span style=&quot;background-color: initial;&quot;&gt;&quot;,&lt;/span&gt;&lt;/div&gt;&lt;div&gt;&lt;span style=&quot;background-color: initial;&quot;&gt;&lt;span style=&quot;white-space: pre;&quot;&gt;&#x9;&lt;/span&gt;&quot;created_at&quot;: &quot;&lt;/span&gt;&lt;span style=&quot;background-color: initial;&quot;&gt;&quot;2017.09.07 17:06:06&quot;&lt;/span&gt;&lt;span style=&quot;background-color: initial;&quot;&gt;&quot;&lt;/span&gt;&lt;/div&gt;&lt;div&gt;}&lt;/div&gt;" style="rounded=0;whiteSpace=wrap;html=1;align=left;" vertex="1" parent="WIyWlLk6GJQsqaUBKTNV-1">
          <mxGeometry x="-268" y="1710" width="235" height="116" as="geometry" />
        </mxCell>
        <mxCell id="SI7UW8Pgef0wgsVxKk_l-134" value="stop" style="ellipse;whiteSpace=wrap;html=1;" vertex="1" parent="WIyWlLk6GJQsqaUBKTNV-1">
          <mxGeometry x="-378" y="2545" width="120" height="50" as="geometry" />
        </mxCell>
        <mxCell id="SI7UW8Pgef0wgsVxKk_l-148" style="edgeStyle=orthogonalEdgeStyle;rounded=0;orthogonalLoop=1;jettySize=auto;html=1;fontSize=12;startSize=8;endSize=8;" edge="1" parent="WIyWlLk6GJQsqaUBKTNV-1" source="SI7UW8Pgef0wgsVxKk_l-145" target="SI7UW8Pgef0wgsVxKk_l-19">
          <mxGeometry relative="1" as="geometry" />
        </mxCell>
        <mxCell id="SI7UW8Pgef0wgsVxKk_l-150" value="no" style="edgeLabel;html=1;align=center;verticalAlign=middle;resizable=0;points=[];fontSize=12;" connectable="0" vertex="1" parent="SI7UW8Pgef0wgsVxKk_l-148">
          <mxGeometry x="-0.531" y="-3" relative="1" as="geometry">
            <mxPoint x="1" as="offset" />
          </mxGeometry>
        </mxCell>
        <mxCell id="SI7UW8Pgef0wgsVxKk_l-145" value="is content-type multipart/form-data?" style="rhombus;whiteSpace=wrap;html=1;" vertex="1" parent="WIyWlLk6GJQsqaUBKTNV-1">
          <mxGeometry x="214" y="630" width="130" height="140" as="geometry" />
        </mxCell>
        <mxCell id="u6Z2U74L1cDcNXQ60Q36-1" style="edgeStyle=orthogonalEdgeStyle;rounded=0;orthogonalLoop=1;jettySize=auto;html=1;" edge="1" parent="WIyWlLk6GJQsqaUBKTNV-1" source="SI7UW8Pgef0wgsVxKk_l-28" target="SI7UW8Pgef0wgsVxKk_l-54">
          <mxGeometry relative="1" as="geometry">
            <mxPoint x="345" y="1730.0526315789475" as="sourcePoint" />
          </mxGeometry>
        </mxCell>
        <mxCell id="xeLrAt8RtwnH5iaN9nZF-1" value="row_data = {&lt;div&gt;&lt;span style=&quot;background-color: initial;&quot;&gt;&lt;span style=&quot;white-space: pre;&quot;&gt;&#x9;&lt;/span&gt;&quot;request_id&quot;: &quot;123abc&quot;,&lt;/span&gt;&lt;/div&gt;&lt;div&gt;&lt;span style=&quot;background-color: initial;&quot;&gt;&lt;span style=&quot;white-space: pre;&quot;&gt;&#x9;&lt;/span&gt;&quot;uniq_id&quot;: &quot;koko_m&quot;,&lt;br&gt;&lt;/span&gt;&lt;/div&gt;&lt;div&gt;&lt;span style=&quot;background-color: initial;&quot;&gt;&lt;span style=&quot;white-space: pre;&quot;&gt;&#x9;&lt;/span&gt;&quot;title: &quot;baju koko&quot;,&lt;br&gt;&lt;/span&gt;&lt;/div&gt;&lt;div&gt;&lt;span style=&quot;white-space: pre;&quot;&gt;&#x9;&lt;/span&gt;&quot;description&quot;: &quot;baju koko lebaran&quot;,&lt;br&gt;&lt;/div&gt;&lt;div&gt;&lt;span style=&quot;background-color: initial;&quot;&gt;&lt;span style=&quot;white-space: pre;&quot;&gt;&#x9;&lt;/span&gt;&quot;condition&quot;: &quot;new&quot;,&lt;/span&gt;&lt;/div&gt;&lt;div&gt;&lt;span style=&quot;background-color: initial;&quot;&gt;&lt;span style=&quot;white-space: pre;&quot;&gt;&#x9;&lt;/span&gt;&quot;price&quot;: 10000&lt;/span&gt;&lt;span style=&quot;background-color: initial;&quot;&gt;,&lt;/span&gt;&lt;/div&gt;&lt;div&gt;&lt;span style=&quot;background-color: initial;&quot;&gt;&lt;span style=&quot;white-space: pre;&quot;&gt;&#x9;&lt;/span&gt;&quot;color&quot;: &quot;royal blue&quot;,&lt;/span&gt;&lt;/div&gt;&lt;div&gt;&lt;span style=&quot;background-color: initial;&quot;&gt;&lt;span style=&quot;white-space: pre;&quot;&gt;&#x9;&lt;/span&gt;&quot;size&quot;: &quot;M&quot;,&lt;br&gt;&lt;/span&gt;&lt;/div&gt;&lt;div&gt;&lt;span style=&quot;background-color: initial;&quot;&gt;&lt;span style=&quot;white-space: pre;&quot;&gt;&#x9;&lt;/span&gt;&quot;age_group&quot;: &quot;adult&quot;,&lt;br&gt;&lt;/span&gt;&lt;/div&gt;&lt;div&gt;&lt;span style=&quot;background-color: initial;&quot;&gt;&lt;span style=&quot;white-space: pre;&quot;&gt;&#x9;&lt;/span&gt;&quot;material&quot;: &quot;cotton&quot;,&lt;br&gt;&lt;/span&gt;&lt;/div&gt;&lt;div&gt;&lt;span style=&quot;background-color: initial;&quot;&gt;&lt;span style=&quot;white-space: pre;&quot;&gt;&#x9;&lt;/span&gt;&quot;weight_kg&quot; : 10&lt;/span&gt;&lt;/div&gt;&lt;div&gt;&lt;span style=&quot;background-color: initial;&quot;&gt;}&lt;/span&gt;&lt;/div&gt;" style="rounded=0;whiteSpace=wrap;html=1;align=left;" vertex="1" parent="WIyWlLk6GJQsqaUBKTNV-1">
          <mxGeometry x="159" y="1971" width="235" height="196" as="geometry" />
        </mxCell>
      </root>
    </mxGraphModel>
  </diagram>
</mxfile>
